<svg xmlns="http://www.w3.org/2000/svg" version="1.1" xmlns:xlink="http://www.w3.org/1999/xlink" xmlns:svgjs="http://svgjs.dev/svgjs" width="2000" height="429" viewBox="0 0 2000 429"><g transform="matrix(1,0,0,1,0.25867073359609094,1.596904717994022)"><svg viewBox="0 0 396 85" data-background-color="#ffffff" preserveAspectRatio="xMidYMid meet" height="429" width="2000" xmlns="http://www.w3.org/2000/svg" xmlns:xlink="http://www.w3.org/1999/xlink"><g id="tight-bounds" transform="matrix(1,0,0,1,0.2400000000000091,0.056226237068472074)"><svg viewBox="0 0 395.52 84.88754752586308" height="84.88754752586308" width="395.52"><g><svg viewBox="0 0 593.5571181035297 127.39079710843372" height="84.88754752586308" width="395.52"><g><rect width="11.431078159742457" height="127.39079710843372" x="156.68175156749805" y="0" fill="#c10000" opacity="1" stroke-width="0" stroke="transparent" fill-opacity="1" class="rect-qz-0" data-fill-palette-color="primary" rx="1%" id="qz-0" data-palette-color="#c10000"></rect></g><g transform="matrix(1,0,0,1,198.03711810352968,0.3168925301204766)"><svg viewBox="0 0 395.52 126.75701204819276" height="126.75701204819276" width="395.52"><g id="textblocktransform"><svg viewBox="0 0 395.52 126.75701204819276" height="126.75701204819276" width="395.52" id="textblock"><g><svg viewBox="0 0 395.52 126.75701204819276" height="126.75701204819276" width="395.52"><g transform="matrix(1,0,0,1,0,0)"><svg width="395.52" viewBox="1.71 -31.98 101.31 32.47" height="126.75701204819276" data-palette-color="#c10000"><path d="M7.18 0L20.61 0Q20.61-1.07 19.82-1.22L19.82-1.22Q19.58-1.27 19.34-1.27L19.34-1.27 16.02-1.27 16.02-28.03 18.85-28.03Q22.8-28.03 24.12-23.24L24.12-23.24Q24.12-23.05 24.17-22.95L24.17-22.95 24.95-19.68 26.32-19.68 26.07-29.3 1.95-29.3 1.71-19.68 3.08-19.68 3.86-22.95Q5.42-27.73 9.18-28.03L9.18-28.03 11.82-28.03 11.82-1.27 7.18-1.27 7.18 0ZM34.13-10.4L34.13-10.4Q34.13-17.97 38.28-19.63L38.28-19.63Q39.35-20.02 40.52-20.02L40.52-20.02Q45.94-20.02 46.82-13.18L46.82-13.18Q46.97-12.01 46.97-10.6L46.97-10.6Q46.97-2.39 42.48-0.98L42.48-0.98Q41.6-0.73 40.67-0.73L40.67-0.73Q35.74-0.73 34.47-6.59L34.47-6.59Q34.13-8.3 34.13-10.4ZM40.67-21.24L40.67-21.24Q35.98-21.24 32.86-18.02L32.86-18.02Q29.98-15.04 29.98-10.6L29.98-10.6Q29.98-4.44 34.47-1.37L34.47-1.37Q37.2 0.49 40.52 0.49L40.52 0.49Q45.21 0.49 48.29-2.83L48.29-2.83Q51.12-5.86 51.12-10.4L51.12-10.4Q51.12-16.55 46.58-19.53L46.58-19.53Q43.89-21.24 40.67-21.24ZM65.33-1.22L65.33-1.22 61.91-1.22 61.91-19.53 67.52-19.53 67.52-20.75 61.91-20.75 61.91-21.04Q61.91-29.39 64.4-30.52L64.4-30.52Q64.94-30.76 65.57-30.76L65.57-30.76Q67.08-30.76 68.11-28.96L68.11-28.96Q68.99-27.39 69.38-27.1L69.38-27.1Q69.77-26.81 70.26-26.81L70.26-26.81Q71.87-26.81 72.16-28.17L72.16-28.17Q72.21-28.42 72.21-28.61L72.21-28.61Q72.21-30.42 69.77-31.45L69.77-31.45Q68.35-31.98 66.6-31.98L66.6-31.98Q62.01-31.98 59.76-28.17L59.76-28.17Q58.25-25.54 58.25-21.53L58.25-21.53 58.25-20.75 54.83-20.75 54.83-19.53 58.25-19.53 58.25-4.15Q58.25-1.9 56.98-1.46L56.98-1.46Q56.25-1.22 54.58-1.22L54.58-1.22 54.58 0 66.55 0Q66.55-1.07 65.82-1.17L65.82-1.17Q65.62-1.22 65.33-1.22ZM93.06-1.22L93.06-1.22 90.62-1.22 90.62-20.75 82.95-20.75 82.95-19.53 86.96-19.53 86.96-8.98Q86.96-4.59 83.88-2.54L83.88-2.54Q82.51-1.61 81.05-1.61L81.05-1.61Q77.04-1.61 76.41-5.71L76.41-5.71Q76.31-6.4 76.31-7.18L76.31-7.18 76.31-20.75 68.89-20.75 68.89-19.53 72.65-19.53 72.65-7.91Q72.7 0.44 79.63 0.49L79.63 0.49Q83.29 0.49 85.64-2.49L85.64-2.49Q86.52-3.61 87.05-4.98L87.05-4.98 87.39 0 94.28 0Q94.28-1.07 93.55-1.17L93.55-1.17Q93.35-1.22 93.06-1.22ZM103.02-2.25L103.02-2.25Q103.02-3.86 101.55-4.54L101.55-4.54Q101.06-4.79 100.53-4.79L100.53-4.79Q98.92-4.79 98.28-3.32L98.28-3.32Q98.04-2.78 98.04-2.25L98.04-2.25Q98.04-0.68 99.45 0L99.45 0Q99.99 0.24 100.53 0.24L100.53 0.24Q102.09 0.24 102.77-1.17L102.77-1.17Q103.02-1.71 103.02-2.25Z" opacity="1" transform="matrix(1,0,0,1,0,0)" fill="#c10000" class="wordmark-text-0" data-fill-palette-color="primary" id="text-0"></path></svg></g></svg></g></svg></g></svg></g><g transform="matrix(1,0,0,1,0,0.3168925301204837)"><svg viewBox="0 0 126.75746319120888 126.75701204819275" height="126.75701204819275" width="126.75746319120888"><g><svg xmlns="http://www.w3.org/2000/svg" viewBox="2 2.000213546250352 60 59.99978645374965" x="0" y="0" height="126.75701204819275" width="126.75746319120888" class="icon-icon-0" data-fill-palette-color="accent" id="icon-0"><g fill="#003c3b" data-fill-palette-color="accent"><path d="M61 51H57V32a1 1 0 0 0-1-1H45V12a1 1 0 0 0-1-1H33.8a5.475 5.475 0 0 0-1.094-5.707l-3-3a1 1 0 0 0-1.414 0 5.45 5.45 0 0 0 0 7.414L29.587 11H22a1 1 0 0 0-1 1V31H12a1 1 0 0 0-1 1V51H3a1 1 0 0 0-1 1v4a1 1 0 0 0 1 1H8.637l5.722 4.769A1.006 1.006 0 0 0 15 62H49a1.006 1.006 0 0 0 0.641-0.231L55.363 57H61a1 1 0 0 0 1-1V52A1 1 0 0 0 61 51ZM29.131 4.546l2.162 2.161a3.45 3.45 0 0 1 0.577 3.748L29.707 8.293A3.448 3.448 0 0 1 29.131 4.546ZM55 51H35V33H55ZM23 13H43V31H23ZM13 33H33V51H13ZM48.638 60H15.362l-3.6-3H52.238ZM60 55H4V53H60Z" fill="#003c3b" data-fill-palette-color="accent"></path><path d="M29 19a3 3 0 0 0-3 3h2a1 1 0 0 1 2 0h2A3 3 0 0 0 29 19Z" fill="#003c3b" data-fill-palette-color="accent"></path><path d="M39 39a3 3 0 1 0 3-3A3 3 0 0 0 39 39Zm4 0a1 1 0 1 1-1-1A1 1 0 0 1 43 39Z" fill="#003c3b" data-fill-palette-color="accent"></path><path d="M50 47a1 1 0 0 1 1 1h2a3 3 0 0 0-6 0h2A1 1 0 0 1 50 47Z" fill="#003c3b" data-fill-palette-color="accent"></path><path d="M25 40a1 1 0 0 1-1-1H22a3 3 0 0 0 6 0H26A1 1 0 0 1 25 40Z" fill="#003c3b" data-fill-palette-color="accent"></path><path d="M39 21h2V16a1 1 0 0 0-1-1H36v2h3Z" fill="#003c3b" data-fill-palette-color="accent"></path><path d="M17 42H15v6a1 1 0 0 0 1 1h5V47H17Z" fill="#003c3b" data-fill-palette-color="accent"></path><rect x="23" y="47" width="4" height="2" fill="#003c3b" data-fill-palette-color="accent"></rect><rect x="33" y="25" width="4" height="2" fill="#003c3b" data-fill-palette-color="accent"></rect><rect x="17" y="36" width="4" height="2" fill="#003c3b" data-fill-palette-color="accent"></rect><rect x="48" y="37" width="4" height="2" fill="#003c3b" data-fill-palette-color="accent"></rect><rect x="37" y="44" width="4" height="2" fill="#003c3b" data-fill-palette-color="accent"></rect></g></svg></g></svg></g></svg></g><defs></defs></svg><rect width="395.52" height="84.88754752586308" fill="none" stroke="none" visibility="hidden"></rect></g></svg></g></svg>